<mxfile host="app.diagrams.net" modified="2024-07-14T10:39:21.401Z" agent="Mozilla/5.0 (Windows NT 10.0; Win64; x64) AppleWebKit/537.36 (KHTML, like Gecko) Chrome/126.0.0.0 Safari/537.36" etag="No-pAeO0CjCI1AoeeQ-6" version="24.6.4" type="github">
  <diagram name="‫עמוד-1‬" id="pWfZaAaE1c-4aH5qUuME">
    <mxGraphModel dx="1615" dy="803" grid="1" gridSize="10" guides="1" tooltips="1" connect="1" arrows="1" fold="1" page="1" pageScale="1" pageWidth="827" pageHeight="1169" math="0" shadow="0">
      <root>
        <mxCell id="0" />
        <mxCell id="1" parent="0" />
        <mxCell id="qM83F7fuRtc4hNPLxj9S-1" value="" style="rounded=0;whiteSpace=wrap;html=1;" vertex="1" parent="1">
          <mxGeometry x="20" y="40" width="1240" height="380" as="geometry" />
        </mxCell>
        <mxCell id="qM83F7fuRtc4hNPLxj9S-2" value="Add New Driver" style="rounded=0;whiteSpace=wrap;html=1;" vertex="1" parent="1">
          <mxGeometry x="20" y="40" width="110" height="30" as="geometry" />
        </mxCell>
        <mxCell id="qM83F7fuRtc4hNPLxj9S-3" value="Delivery_manager_menu" style="rounded=0;whiteSpace=wrap;html=1;" vertex="1" parent="1">
          <mxGeometry x="60" y="90" width="140" height="30" as="geometry" />
        </mxCell>
        <mxCell id="qM83F7fuRtc4hNPLxj9S-4" value="Driver_Addition" style="rounded=0;whiteSpace=wrap;html=1;" vertex="1" parent="1">
          <mxGeometry x="260" y="90" width="140" height="30" as="geometry" />
        </mxCell>
        <mxCell id="qM83F7fuRtc4hNPLxj9S-5" value="" style="endArrow=none;dashed=1;html=1;rounded=0;entryX=0.5;entryY=1;entryDx=0;entryDy=0;exitX=0.141;exitY=0.921;exitDx=0;exitDy=0;exitPerimeter=0;" edge="1" parent="1" source="qM83F7fuRtc4hNPLxj9S-14" target="qM83F7fuRtc4hNPLxj9S-4">
          <mxGeometry width="50" height="50" relative="1" as="geometry">
            <mxPoint x="330" y="390" as="sourcePoint" />
            <mxPoint x="350" y="140" as="targetPoint" />
          </mxGeometry>
        </mxCell>
        <mxCell id="qM83F7fuRtc4hNPLxj9S-6" value="controller" style="rounded=0;whiteSpace=wrap;html=1;" vertex="1" parent="1">
          <mxGeometry x="460" y="90" width="140" height="30" as="geometry" />
        </mxCell>
        <mxCell id="qM83F7fuRtc4hNPLxj9S-7" value="" style="endArrow=none;dashed=1;html=1;rounded=0;entryX=0.5;entryY=1;entryDx=0;entryDy=0;exitX=0.141;exitY=0.921;exitDx=0;exitDy=0;exitPerimeter=0;" edge="1" parent="1" target="qM83F7fuRtc4hNPLxj9S-6">
          <mxGeometry width="50" height="50" relative="1" as="geometry">
            <mxPoint x="530" y="390" as="sourcePoint" />
            <mxPoint x="550" y="140" as="targetPoint" />
          </mxGeometry>
        </mxCell>
        <mxCell id="qM83F7fuRtc4hNPLxj9S-8" value="STD_manager" style="rounded=0;whiteSpace=wrap;html=1;" vertex="1" parent="1">
          <mxGeometry x="660" y="90" width="140" height="30" as="geometry" />
        </mxCell>
        <mxCell id="qM83F7fuRtc4hNPLxj9S-9" value="" style="endArrow=none;dashed=1;html=1;rounded=0;entryX=0.5;entryY=1;entryDx=0;entryDy=0;exitX=0.141;exitY=0.921;exitDx=0;exitDy=0;exitPerimeter=0;" edge="1" parent="1" target="qM83F7fuRtc4hNPLxj9S-8">
          <mxGeometry width="50" height="50" relative="1" as="geometry">
            <mxPoint x="730" y="390" as="sourcePoint" />
            <mxPoint x="750" y="140" as="targetPoint" />
          </mxGeometry>
        </mxCell>
        <mxCell id="qM83F7fuRtc4hNPLxj9S-10" value="" style="endArrow=none;dashed=1;html=1;rounded=0;entryX=0.5;entryY=1;entryDx=0;entryDy=0;exitX=0.141;exitY=0.921;exitDx=0;exitDy=0;exitPerimeter=0;" edge="1" parent="1" source="qM83F7fuRtc4hNPLxj9S-12">
          <mxGeometry width="50" height="50" relative="1" as="geometry">
            <mxPoint x="129.5" y="390" as="sourcePoint" />
            <mxPoint x="129.5" y="120" as="targetPoint" />
          </mxGeometry>
        </mxCell>
        <mxCell id="qM83F7fuRtc4hNPLxj9S-11" value="" style="endArrow=none;dashed=1;html=1;rounded=0;entryX=0.5;entryY=1;entryDx=0;entryDy=0;exitX=0.141;exitY=0.921;exitDx=0;exitDy=0;exitPerimeter=0;" edge="1" parent="1" target="qM83F7fuRtc4hNPLxj9S-12">
          <mxGeometry width="50" height="50" relative="1" as="geometry">
            <mxPoint x="129.5" y="390" as="sourcePoint" />
            <mxPoint x="129.5" y="120" as="targetPoint" />
          </mxGeometry>
        </mxCell>
        <mxCell id="qM83F7fuRtc4hNPLxj9S-12" value="" style="rounded=0;whiteSpace=wrap;html=1;" vertex="1" parent="1">
          <mxGeometry x="120" y="140" width="20" height="180" as="geometry" />
        </mxCell>
        <mxCell id="qM83F7fuRtc4hNPLxj9S-13" value="" style="endArrow=none;dashed=1;html=1;rounded=0;entryX=0.5;entryY=1;entryDx=0;entryDy=0;exitX=0.141;exitY=0.921;exitDx=0;exitDy=0;exitPerimeter=0;" edge="1" parent="1" target="qM83F7fuRtc4hNPLxj9S-14">
          <mxGeometry width="50" height="50" relative="1" as="geometry">
            <mxPoint x="330" y="390" as="sourcePoint" />
            <mxPoint x="330" y="120" as="targetPoint" />
          </mxGeometry>
        </mxCell>
        <mxCell id="qM83F7fuRtc4hNPLxj9S-14" value="" style="rounded=0;whiteSpace=wrap;html=1;" vertex="1" parent="1">
          <mxGeometry x="320" y="140" width="20" height="180" as="geometry" />
        </mxCell>
        <mxCell id="qM83F7fuRtc4hNPLxj9S-15" value="" style="endArrow=classic;html=1;rounded=0;entryX=0;entryY=0.25;entryDx=0;entryDy=0;exitX=1;exitY=0.25;exitDx=0;exitDy=0;" edge="1" parent="1">
          <mxGeometry relative="1" as="geometry">
            <mxPoint x="140" y="150" as="sourcePoint" />
            <mxPoint x="320" y="150" as="targetPoint" />
          </mxGeometry>
        </mxCell>
        <mxCell id="qM83F7fuRtc4hNPLxj9S-16" value="add_new_driver" style="edgeLabel;resizable=0;html=1;;align=center;verticalAlign=middle;" connectable="0" vertex="1" parent="qM83F7fuRtc4hNPLxj9S-15">
          <mxGeometry relative="1" as="geometry" />
        </mxCell>
        <mxCell id="qM83F7fuRtc4hNPLxj9S-17" value="" style="rounded=0;whiteSpace=wrap;html=1;" vertex="1" parent="1">
          <mxGeometry x="520" y="150" width="20" height="50" as="geometry" />
        </mxCell>
        <mxCell id="qM83F7fuRtc4hNPLxj9S-18" value="" style="endArrow=classic;html=1;rounded=0;entryX=0;entryY=0.25;entryDx=0;entryDy=0;exitX=1;exitY=0.25;exitDx=0;exitDy=0;" edge="1" parent="1">
          <mxGeometry relative="1" as="geometry">
            <mxPoint x="340" y="160" as="sourcePoint" />
            <mxPoint x="520" y="160" as="targetPoint" />
          </mxGeometry>
        </mxCell>
        <mxCell id="qM83F7fuRtc4hNPLxj9S-19" value="driver_exists(int ID)" style="edgeLabel;resizable=0;html=1;;align=center;verticalAlign=middle;" connectable="0" vertex="1" parent="qM83F7fuRtc4hNPLxj9S-18">
          <mxGeometry relative="1" as="geometry" />
        </mxCell>
        <mxCell id="qM83F7fuRtc4hNPLxj9S-20" value="" style="endArrow=classic;html=1;rounded=0;entryX=0;entryY=0.25;entryDx=0;entryDy=0;exitX=1;exitY=0.25;exitDx=0;exitDy=0;" edge="1" parent="1">
          <mxGeometry relative="1" as="geometry">
            <mxPoint x="340" y="261.5" as="sourcePoint" />
            <mxPoint x="520" y="261.5" as="targetPoint" />
          </mxGeometry>
        </mxCell>
        <mxCell id="qM83F7fuRtc4hNPLxj9S-21" value="add_driver(JsonObject driver)" style="edgeLabel;resizable=0;html=1;;align=center;verticalAlign=middle;" connectable="0" vertex="1" parent="qM83F7fuRtc4hNPLxj9S-20">
          <mxGeometry relative="1" as="geometry" />
        </mxCell>
        <mxCell id="qM83F7fuRtc4hNPLxj9S-22" value="" style="rounded=0;whiteSpace=wrap;html=1;" vertex="1" parent="1">
          <mxGeometry x="720" y="253" width="20" height="97" as="geometry" />
        </mxCell>
        <mxCell id="qM83F7fuRtc4hNPLxj9S-23" value="" style="endArrow=classic;html=1;rounded=0;entryX=0;entryY=0.25;entryDx=0;entryDy=0;exitX=1;exitY=0.25;exitDx=0;exitDy=0;" edge="1" parent="1">
          <mxGeometry relative="1" as="geometry">
            <mxPoint x="540" y="266.5" as="sourcePoint" />
            <mxPoint x="720" y="266.5" as="targetPoint" />
          </mxGeometry>
        </mxCell>
        <mxCell id="qM83F7fuRtc4hNPLxj9S-24" value="add_driver(JsonObject driver)" style="edgeLabel;resizable=0;html=1;;align=center;verticalAlign=middle;" connectable="0" vertex="1" parent="qM83F7fuRtc4hNPLxj9S-23">
          <mxGeometry relative="1" as="geometry" />
        </mxCell>
        <mxCell id="qM83F7fuRtc4hNPLxj9S-25" value="DriverRepo" style="rounded=0;whiteSpace=wrap;html=1;" vertex="1" parent="1">
          <mxGeometry x="860" y="90" width="140" height="30" as="geometry" />
        </mxCell>
        <mxCell id="qM83F7fuRtc4hNPLxj9S-26" value="" style="endArrow=none;dashed=1;html=1;rounded=0;entryX=0.5;entryY=1;entryDx=0;entryDy=0;exitX=0.141;exitY=0.921;exitDx=0;exitDy=0;exitPerimeter=0;" edge="1" parent="1" target="qM83F7fuRtc4hNPLxj9S-25">
          <mxGeometry width="50" height="50" relative="1" as="geometry">
            <mxPoint x="930" y="390" as="sourcePoint" />
            <mxPoint x="950" y="140" as="targetPoint" />
          </mxGeometry>
        </mxCell>
        <mxCell id="qM83F7fuRtc4hNPLxj9S-27" value="" style="rounded=0;whiteSpace=wrap;html=1;" vertex="1" parent="1">
          <mxGeometry x="920" y="270" width="20" height="80" as="geometry" />
        </mxCell>
        <mxCell id="qM83F7fuRtc4hNPLxj9S-28" value="" style="endArrow=classic;html=1;rounded=0;entryX=0;entryY=0.25;entryDx=0;entryDy=0;exitX=1;exitY=0.25;exitDx=0;exitDy=0;" edge="1" parent="1">
          <mxGeometry relative="1" as="geometry">
            <mxPoint x="740" y="276.5" as="sourcePoint" />
            <mxPoint x="920" y="276.5" as="targetPoint" />
          </mxGeometry>
        </mxCell>
        <mxCell id="qM83F7fuRtc4hNPLxj9S-29" value="add(JsonObject driver)" style="edgeLabel;resizable=0;html=1;;align=center;verticalAlign=middle;" connectable="0" vertex="1" parent="qM83F7fuRtc4hNPLxj9S-28">
          <mxGeometry relative="1" as="geometry" />
        </mxCell>
        <mxCell id="qM83F7fuRtc4hNPLxj9S-30" value="DriverDAO" style="rounded=0;whiteSpace=wrap;html=1;" vertex="1" parent="1">
          <mxGeometry x="1060" y="90" width="140" height="30" as="geometry" />
        </mxCell>
        <mxCell id="qM83F7fuRtc4hNPLxj9S-31" value="" style="endArrow=none;dashed=1;html=1;rounded=0;entryX=0.5;entryY=1;entryDx=0;entryDy=0;exitX=0.141;exitY=0.921;exitDx=0;exitDy=0;exitPerimeter=0;" edge="1" parent="1" target="qM83F7fuRtc4hNPLxj9S-30">
          <mxGeometry width="50" height="50" relative="1" as="geometry">
            <mxPoint x="1130" y="390" as="sourcePoint" />
            <mxPoint x="1150" y="140" as="targetPoint" />
          </mxGeometry>
        </mxCell>
        <mxCell id="qM83F7fuRtc4hNPLxj9S-32" value="" style="endArrow=classic;html=1;rounded=0;entryX=0;entryY=0.25;entryDx=0;entryDy=0;exitX=1;exitY=0.25;exitDx=0;exitDy=0;" edge="1" parent="1">
          <mxGeometry relative="1" as="geometry">
            <mxPoint x="940" y="291" as="sourcePoint" />
            <mxPoint x="1120" y="291" as="targetPoint" />
          </mxGeometry>
        </mxCell>
        <mxCell id="qM83F7fuRtc4hNPLxj9S-33" value="add(JsonObject driver)" style="edgeLabel;resizable=0;html=1;;align=center;verticalAlign=middle;" connectable="0" vertex="1" parent="qM83F7fuRtc4hNPLxj9S-32">
          <mxGeometry relative="1" as="geometry" />
        </mxCell>
        <mxCell id="qM83F7fuRtc4hNPLxj9S-34" value="" style="rounded=0;whiteSpace=wrap;html=1;" vertex="1" parent="1">
          <mxGeometry x="520" y="243" width="20" height="110" as="geometry" />
        </mxCell>
        <mxCell id="qM83F7fuRtc4hNPLxj9S-35" value="return" style="html=1;verticalAlign=bottom;endArrow=open;dashed=1;endSize=8;curved=0;rounded=0;" edge="1" parent="1">
          <mxGeometry relative="1" as="geometry">
            <mxPoint x="520" y="190" as="sourcePoint" />
            <mxPoint x="340" y="190" as="targetPoint" />
          </mxGeometry>
        </mxCell>
        <mxCell id="qM83F7fuRtc4hNPLxj9S-36" value="opt" style="shape=umlFrame;whiteSpace=wrap;html=1;pointerEvents=0;" vertex="1" parent="1">
          <mxGeometry x="299" y="205.5" width="860" height="165.5" as="geometry" />
        </mxCell>
        <mxCell id="qM83F7fuRtc4hNPLxj9S-37" value="[!driver_exists]" style="text;html=1;align=center;verticalAlign=middle;resizable=0;points=[];autosize=1;strokeColor=none;fillColor=none;labelBackgroundColor=default;" vertex="1" parent="1">
          <mxGeometry x="314" y="230" width="100" height="30" as="geometry" />
        </mxCell>
        <mxCell id="qM83F7fuRtc4hNPLxj9S-38" value="" style="rounded=0;whiteSpace=wrap;html=1;" vertex="1" parent="1">
          <mxGeometry x="1120" y="280" width="20" height="70" as="geometry" />
        </mxCell>
      </root>
    </mxGraphModel>
  </diagram>
</mxfile>
